<?xml version="1.0" standalone="no"?>
<!DOCTYPE svg PUBLIC "-//W3C//DTD SVG 20010904//EN"
 "http://www.w3.org/TR/2001/REC-SVG-20010904/DTD/svg10.dtd">
<svg version="1.0" xmlns="http://www.w3.org/2000/svg"
 width="521.000000pt" height="607.000000pt" viewBox="0 0 521.000000 607.000000"
 preserveAspectRatio="xMidYMid meet">

<g transform="translate(0.000000,607.000000) scale(0.100000,-0.100000)"
fill="#000000" stroke="none">
<path d="M2985 4901 c-5 -5 -19 -11 -29 -13 -11 -1 -21 -10 -22 -18 -4 -14
-12 -51 -32 -135 -6 -22 -13 -63 -16 -91 -6 -49 -5 -52 19 -58 14 -4 35 -4 48
-2 12 3 55 8 96 10 41 3 78 9 83 14 5 5 14 40 21 78 7 38 16 62 19 54 6 -17 3
-69 -6 -104 -9 -35 14 -49 71 -42 26 4 73 9 103 13 82 9 98 17 109 60 11 41
10 121 -3 141 -4 6 -3 12 3 12 19 0 -9 57 -35 70 -20 11 -39 11 -107 1 -119
-18 -120 -18 -132 -76 -1 -5 -6 -21 -12 -35 -8 -20 -11 -14 -15 44 -3 37 -7
69 -9 71 -10 9 -145 15 -154 6z m69 -125 c-3 -15 -8 -25 -11 -23 -2 3 -1 17 3
31 3 15 8 25 11 23 2 -3 1 -17 -3 -31z m186 -80 c0 -3 -4 -8 -10 -11 -5 -3
-10 -1 -10 4 0 6 5 11 10 11 6 0 10 -2 10 -4z m180 -16 c0 -5 -7 -10 -16 -10
-8 0 -12 5 -9 10 3 6 10 10 16 10 5 0 9 -4 9 -10z m-460 -53 c9 -3 3 -6 -12
-6 -20 -1 -28 4 -28 15 0 12 4 14 13 7 6 -6 19 -13 27 -16z"/>
<path d="M3497 4891 c-3 -15 0 -21 10 -21 11 0 13 -4 5 -12 -5 -7 -12 -44 -15
-83 -4 -38 -9 -85 -13 -102 -10 -48 7 -63 64 -56 41 5 45 4 34 -10 -28 -34
-19 -230 11 -249 12 -8 5 -9 -73 -12 -32 -1 -35 -4 -38 -35 -3 -25 0 -31 10
-25 10 6 10 4 2 -7 -6 -8 -8 -38 -6 -66 l4 -53 51 -1 c56 -1 54 -4 -5 -14 -37
-6 -54 -25 -23 -25 17 0 18 -12 4 -50 l-9 -25 4 27 c3 27 -16 44 -35 32 -13
-8 -11 10 4 25 10 11 8 12 -12 6 -21 -6 -23 -5 -18 16 15 64 18 117 7 124 -6
4 -15 17 -20 30 -6 16 -19 25 -37 27 -39 4 -136 -18 -148 -35 -11 -15 -35 -11
-47 6 -14 23 -167 0 -153 -23 8 -14 -8 -13 -22 1 -7 7 -17 8 -25 3 -16 -10
-48 -6 -67 9 -12 10 -13 9 -8 -7 7 -18 6 -18 -17 -2 -31 20 -56 21 -56 2 0 -9
-7 -12 -19 -9 -26 7 -30 -3 -30 -78 -1 -88 8 -127 32 -144 17 -12 18 -15 5
-15 -23 0 -48 -27 -42 -45 3 -7 7 -37 9 -67 5 -83 15 -104 48 -99 21 3 3 -18
-23 -27 -36 -13 -45 -42 -37 -120 6 -61 31 -93 65 -87 9 2 39 7 65 11 52 7 97
36 97 62 0 11 8 5 21 -15 18 -28 27 -33 59 -33 21 0 43 6 49 14 7 8 20 14 29
14 9 -1 33 2 53 6 23 5 39 4 43 -3 10 -15 50 -14 91 3 32 14 34 13 41 -6 5
-16 12 -19 36 -14 17 3 63 6 102 6 64 1 73 3 89 25 21 29 28 104 14 156 -7 30
-15 39 -47 49 -24 8 -55 10 -82 6 -24 -4 -51 -8 -60 -9 -10 -1 -18 -6 -18 -11
0 -5 -3 -6 -7 -3 -3 4 -11 2 -18 -3 -8 -6 -18 -4 -31 9 -11 10 -26 21 -34 24
-11 4 -9 6 5 7 11 1 29 4 40 7 11 3 36 6 55 6 19 1 40 5 45 8 6 4 37 5 70 4
55 -2 60 -1 73 24 7 14 12 45 10 68 -2 24 1 44 6 46 14 5 -12 68 -36 90 -20
17 -20 17 6 17 14 0 26 -4 26 -10 0 -5 7 -10 15 -10 8 0 15 5 15 11 0 6 7 17
15 25 8 9 16 25 16 37 3 61 -2 102 -16 123 -17 26 -25 24 85 29 14 0 33 -3 42
-7 20 -10 76 11 96 34 7 9 14 52 16 101 l4 86 -41 21 c-38 19 -39 21 -13 18
23 -2 32 3 47 27 20 34 25 95 8 95 -8 0 -8 4 0 14 9 11 9 20 2 35 -6 11 -11
29 -11 40 0 12 -3 20 -7 19 -5 0 -15 2 -23 5 -33 13 -173 15 -186 2 -8 -7 -13
-43 -13 -95 -1 -88 -4 -101 -23 -82 -9 9 -9 12 1 12 11 0 13 19 7 97 -4 54
-11 102 -17 108 -5 5 -47 12 -93 13 -77 4 -84 3 -89 -17z m317 -64 c-11 -6
-25 -19 -32 -29 -16 -22 -31 -15 -29 12 1 14 8 20 24 20 12 0 25 5 28 10 4 6
11 7 17 4 6 -4 3 -11 -8 -17z m96 -87 c0 -5 -2 -10 -4 -10 -3 0 -8 5 -11 10
-3 6 -1 10 4 10 6 0 11 -4 11 -10z m-245 -41 c4 -5 -3 -9 -14 -9 -26 0 -35 15
-11 17 11 1 22 -2 25 -8z m104 -46 c1 -7 -3 -13 -9 -13 -5 0 -10 17 -9 38 1
33 2 34 9 12 4 -14 8 -31 9 -37z m-234 16 c-6 -17 -9 -19 -16 -8 -12 19 -11
32 1 24 6 -3 10 -1 10 6 0 7 3 10 6 6 3 -3 3 -15 -1 -28z m203 -45 c13 -9 26
-14 28 -11 8 8 64 -13 64 -23 0 -5 -4 -12 -10 -15 -5 -3 -10 1 -10 10 0 10 -7
15 -17 13 -12 -2 -17 -11 -15 -26 5 -33 -15 -26 -23 8 -4 18 -17 36 -33 45
-15 8 -22 14 -17 15 6 0 21 -7 33 -16z m170 -79 l4 -20 -16 20 c-16 20 -16 20
-31 1 -12 -16 -12 -22 -2 -35 8 -11 9 -13 0 -8 -8 5 -13 -3 -15 -25 -2 -25 -4
-28 -9 -13 -3 11 -1 39 4 63 8 39 11 43 35 40 18 -2 28 -10 30 -23z m-133 -15
c3 -5 1 -10 -4 -10 -6 0 -11 5 -11 10 0 6 2 10 4 10 3 0 8 -4 11 -10z m135
-30 c0 -5 -4 -10 -10 -10 -5 0 -10 5 -10 10 0 6 5 10 10 10 6 0 10 -4 10 -10z
m-290 -30 c0 -5 -5 -10 -11 -10 -5 0 -7 5 -4 10 3 6 8 10 11 10 2 0 4 -4 4
-10z m294 -5 c-4 -8 -11 -15 -16 -15 -6 0 -5 6 2 15 7 8 14 15 16 15 2 0 1 -7
-2 -15z m-174 -60 c0 -9 -6 -12 -16 -8 -13 5 -13 7 -2 14 17 11 18 11 18 -6z
m-235 -85 c3 -5 1 -10 -4 -10 -6 0 -11 5 -11 10 0 6 2 10 4 10 3 0 8 -4 11
-10z m-178 -62 c-3 -8 -6 -5 -6 6 -1 11 2 17 5 13 3 -3 4 -12 1 -19z m-278
-68 c7 -25 16 -52 21 -60 4 -8 5 -30 2 -48 -3 -24 1 -37 14 -48 18 -13 16 -14
-21 -12 l-40 3 -6 -45 c-5 -38 -6 -40 -7 -12 -1 22 -11 42 -29 59 -16 15 -23
23 -17 20 33 -19 84 84 52 104 -11 8 -11 10 0 18 10 6 11 19 7 47 -10 51 7 33
24 -26z m371 39 c0 -6 -4 -7 -10 -4 -5 3 -10 11 -10 16 0 6 5 7 10 4 6 -3 10
-11 10 -16z m-323 -21 c-3 -8 -6 -5 -6 6 -1 11 2 17 5 13 3 -3 4 -12 1 -19z
m507 3 c3 -5 -1 -11 -9 -14 -9 -4 -12 -1 -8 9 6 16 10 17 17 5z m-617 -103
c-3 -8 -6 -5 -6 6 -1 11 2 17 5 13 3 -3 4 -12 1 -19z m623 7 c11 -13 10 -14
-4 -9 -10 4 -16 1 -16 -7 0 -7 -2 -10 -5 -7 -5 5 4 38 10 38 1 0 8 -7 15 -15z
m-184 -8 c10 3 14 -3 14 -20 0 -21 -4 -24 -26 -19 -24 4 -26 2 -19 -19 5 -18
4 -20 -4 -9 -6 8 -8 23 -5 34 4 10 2 16 -2 14 -5 -3 -18 -2 -29 3 -19 7 -19 8
2 8 12 1 25 6 29 12 4 7 10 7 16 1 6 -6 17 -8 24 -5z m-131 -17 c3 -6 -3 -23
-14 -39 -23 -32 -37 -166 -20 -187 5 -6 7 -18 3 -27 -7 -20 -37 -32 -42 -17
-3 7 -10 4 -18 -7 -13 -17 -13 -17 -14 3 0 12 7 27 15 34 9 7 13 15 11 18 -3
2 1 11 9 19 37 36 6 110 -53 128 -32 9 -17 25 24 25 19 0 34 4 34 9 0 5 9 11
20 14 11 3 20 12 20 21 0 18 15 21 25 6z m-135 -10 c0 -5 -15 -9 -32 -9 l-33
1 30 8 c17 4 31 8 33 9 1 0 2 -3 2 -9z m490 6 c0 -3 -4 -8 -10 -11 -5 -3 -10
-1 -10 4 0 6 5 11 10 11 6 0 10 -2 10 -4z m-727 -43 c-7 -2 -19 -2 -25 0 -7 3
-2 5 12 5 14 0 19 -2 13 -5z m712 -23 c3 -5 1 -10 -4 -10 -6 0 -11 5 -11 10 0
6 2 10 4 10 3 0 8 -4 11 -10z m-13 -45 c-5 -29 -28 -34 -28 -6 0 11 4 18 7 15
4 -2 10 0 14 6 10 16 13 12 7 -15z m-762 0 c0 -8 -2 -15 -4 -15 -2 0 -6 7 -10
15 -3 8 -1 15 4 15 6 0 10 -7 10 -15z m251 -28 c-10 -9 -11 -8 -5 6 3 10 9 15
12 12 3 -3 0 -11 -7 -18z m93 -3 c3 -8 2 -12 -4 -9 -6 3 -10 10 -10 16 0 14 7
11 14 -7z m-347 -16 c-3 -8 -6 -5 -6 6 -1 11 2 17 5 13 3 -3 4 -12 1 -19z
m173 -20 c0 -13 6 -34 13 -48 9 -17 11 -39 5 -69 -6 -31 -5 -47 4 -52 8 -5 7
-12 -5 -24 -16 -15 -18 -15 -27 10 -5 14 -10 32 -10 38 -1 18 -44 46 -87 57
-36 9 -35 9 15 5 49 -4 54 -2 62 21 5 13 11 38 12 54 3 35 18 41 18 8z m50
-10 c0 -7 -5 -20 -10 -28 -8 -12 -10 -11 -10 7 0 12 -6 24 -12 26 -7 3 -3 6
10 6 12 1 22 -5 22 -11z m45 -24 c-9 -9 -18 -14 -21 -11 -9 9 6 27 22 27 13 0
13 -2 -1 -16z m35 -80 c0 -8 -5 -12 -10 -9 -6 4 -8 11 -5 16 9 14 15 11 15 -7z
m-3 -30 c-3 -3 -12 -4 -19 -1 -8 3 -5 6 6 6 11 1 17 -2 13 -5z m-310 -33 c-1
-17 -5 -27 -9 -23 -7 7 0 52 8 52 2 0 2 -13 1 -29z m363 4 c0 -2 -10 -10 -22
-16 -21 -11 -22 -11 -9 4 13 16 31 23 31 12z m328 -65 c-8 -13 -15 -16 -19 -8
-10 15 -2 28 17 28 12 0 12 -4 2 -20z m-684 -5 c3 -8 1 -15 -4 -15 -6 0 -10 7
-10 15 0 8 2 15 4 15 2 0 6 -7 10 -15z m252 -10 c-21 -16 -32 -13 -21 4 3 6
14 11 23 11 15 -1 15 -2 -2 -15z m-169 -14 c-1 -16 -4 -17 -15 -9 -10 9 -11
13 0 19 17 11 17 12 15 -10z"/>
<path d="M2673 4860 c5 -23 4 -24 -9 -6 -8 11 -17 16 -21 13 -3 -4 -3 -7 1 -7
5 0 1 -11 -8 -25 -14 -22 -15 -25 -1 -25 8 0 15 -4 15 -10 0 -5 -6 -7 -14 -4
-19 7 -37 -74 -34 -156 l3 -64 40 -8 c56 -12 137 2 174 29 27 21 73 137 68
170 -2 12 0 20 4 17 10 -6 11 -2 14 38 2 27 -23 47 -43 34 -5 -3 -16 4 -25 15
-18 20 -62 26 -72 9 -5 -8 -11 -8 -19 -1 -7 6 -27 9 -45 8 -29 -2 -32 -5 -28
-27z m67 -4 c0 -2 -7 -7 -16 -10 -8 -3 -12 -2 -9 4 6 10 25 14 25 6z m-56 -90
c-3 -15 -8 -25 -11 -23 -2 3 -1 17 3 31 3 15 8 25 11 23 2 -3 1 -17 -3 -31z
m-24 -156 c0 -5 -4 -10 -10 -10 -5 0 -10 5 -10 10 0 6 5 10 10 10 6 0 10 -4
10 -10z"/>
<path d="M2387 4864 c-1 -2 -20 -4 -40 -6 -39 -2 -61 -18 -62 -47 -1 -9 -2
-29 -3 -46 -2 -22 -5 -26 -11 -15 -6 8 -7 18 -5 22 3 5 -10 15 -30 23 -42 18
-141 21 -130 4 5 -8 1 -8 -14 0 -34 18 -59 13 -77 -16 -16 -24 -17 -35 -6
-102 6 -42 11 -101 11 -131 0 -31 5 -61 11 -67 14 -14 14 -61 0 -96 -6 -16
-11 -54 -11 -86 0 -68 17 -88 70 -86 19 1 62 2 94 3 33 1 56 5 53 9 -4 3 -3
11 2 17 10 13 23 104 26 189 1 44 -1 57 -13 57 -11 0 -12 3 -3 14 7 8 14 27
17 43 8 45 21 49 53 15 16 -18 37 -32 48 -33 34 -2 68 3 77 11 5 5 15 6 22 3
21 -8 65 6 62 20 -2 7 10 34 26 61 26 44 29 60 30 135 l1 85 -30 8 c-30 8
-162 18 -168 12z m-17 -51 c-11 -17 -11 -17 -6 0 3 10 6 24 7 30 0 9 2 9 5 0
3 -7 0 -20 -6 -30z m-200 -27 c0 -3 -4 -8 -10 -11 -5 -3 -10 -1 -10 4 0 6 5
11 10 11 6 0 10 -2 10 -4z m-87 -78 c-5 -29 -17 -36 -28 -18 -3 6 -2 10 4 10
5 0 13 9 16 21 9 28 14 20 8 -13z m70 -5 c-7 -52 -13 -54 -13 -5 0 23 4 42 9
42 5 0 7 -17 4 -37z m37 22 c0 -8 -4 -15 -9 -15 -13 0 -22 16 -14 24 11 11 23
6 23 -9z m290 1 c0 -3 -4 -8 -10 -11 -5 -3 -10 -1 -10 4 0 6 5 11 10 11 6 0
10 -2 10 -4z m-73 -28 c-3 -8 -6 -5 -6 6 -1 11 2 17 5 13 3 -3 4 -12 1 -19z
m28 -69 c-3 -4 -12 -6 -20 -3 -8 4 -13 10 -10 15 3 4 12 6 20 3 8 -4 13 -10
10 -15z m-135 -20 c0 -6 -4 -7 -10 -4 -5 3 -10 11 -10 16 0 6 5 7 10 4 6 -3
10 -11 10 -16z m-105 -159 c3 -5 1 -10 -4 -10 -6 0 -11 5 -11 10 0 6 2 10 4
10 3 0 8 -4 11 -10z m5 -45 c0 -20 -10 -19 -26 3 -19 25 -17 34 6 22 11 -6 20
-17 20 -25z m-62 -60 c-3 -3 -9 2 -12 12 -6 14 -5 15 5 6 7 -7 10 -15 7 -18z
m-74 -32 c-7 -39 -14 -42 -14 -5 0 18 4 32 9 32 5 0 7 -12 5 -27z m66 -53 c0
-5 -10 -10 -22 -9 -22 0 -22 1 -3 9 11 5 21 9 23 9 1 1 2 -3 2 -9z"/>
<path d="M1497 4591 c-27 -17 -27 -19 -8 -24 14 -3 21 -13 21 -29 -1 -21 -2
-22 -14 -5 -22 29 -39 21 -32 -15 7 -35 13 -101 20 -206 2 -35 8 -68 13 -73
18 -18 140 -14 215 7 14 4 35 62 31 84 -1 3 -4 57 -7 120 -5 89 -10 118 -23
127 -9 7 -20 10 -26 6 -5 -3 -12 -1 -16 4 -3 6 -38 13 -76 16 -58 6 -75 4 -98
-12z m143 -46 c0 -8 -2 -15 -4 -15 -2 0 -6 7 -10 15 -3 8 -1 15 4 15 6 0 10
-7 10 -15z m45 -155 c-3 -5 -11 -10 -16 -10 -6 0 -7 5 -4 10 3 6 11 10 16 10
6 0 7 -4 4 -10z"/>
<path d="M1250 4566 c-105 -18 -101 -10 -103 -177 -3 -185 -1 -188 103 -184
89 3 154 19 180 45 18 18 19 32 16 160 -2 89 -8 145 -15 154 -15 17 -85 18
-181 2z m-10 -30 c0 -7 -11 -16 -25 -18 -29 -6 -32 0 -7 18 22 17 32 17 32 0z
m140 -34 c0 -5 -7 -9 -15 -9 -8 0 -12 4 -9 9 3 4 9 8 15 8 5 0 9 -4 9 -8z m7
-104 c-3 -7 -5 -2 -5 12 0 14 2 19 5 13 2 -7 2 -19 0 -25z m-30 -144 c-3 -3
-12 -4 -19 -1 -8 3 -5 6 6 6 11 1 17 -2 13 -5z"/>
<path d="M3788 4326 c-17 -23 -43 -168 -36 -202 2 -11 -4 -23 -16 -29 -40 -21
-58 -60 -63 -139 -4 -61 -2 -77 10 -82 8 -3 13 -13 10 -23 -5 -19 15 -28 87
-37 19 -2 44 -6 56 -8 28 -5 48 8 41 28 -4 9 -3 16 2 16 4 0 8 6 9 13 1 6 8
37 17 67 13 46 14 62 4 93 -7 21 -22 45 -33 53 -11 8 -16 14 -11 15 6 1 21 2
34 2 31 2 39 23 12 32 -21 6 -19 36 2 32 8 -1 14 23 18 68 5 66 4 71 -20 92
-14 13 -33 20 -43 17 -9 -2 -19 0 -23 6 -11 17 -39 11 -57 -14z m82 -92 c0 -8
-4 -12 -10 -9 -5 3 -10 10 -10 16 0 5 5 9 10 9 6 0 10 -7 10 -16z m9 -110 c2
-2 -18 -4 -45 -4 -34 0 -44 3 -34 9 12 9 68 4 79 -5z m-39 -149 c0 -8 -2 -15
-4 -15 -2 0 -6 7 -10 15 -3 8 -1 15 4 15 6 0 10 -7 10 -15z"/>
<path d="M1545 4197 c-33 -6 -66 -17 -73 -24 -18 -17 -7 -248 13 -279 16 -25
51 -34 150 -41 96 -6 108 4 108 88 -2 191 -5 244 -15 256 -12 15 -94 15 -183
0z m18 -72 c-3 -9 -8 -14 -10 -11 -3 3 -2 9 2 15 9 16 15 13 8 -4z m-13 -109
c-14 -14 -24 0 -16 21 6 15 8 15 16 3 6 -9 5 -19 0 -24z"/>
<path d="M2063 4193 c-12 -2 -27 -11 -33 -19 -12 -14 -11 -15 10 -18 6 0 9 -5
8 -11 -1 -5 -8 -9 -14 -7 -7 1 -15 -1 -17 -5 -8 -13 -18 -214 -11 -224 3 -5
13 -5 24 1 15 8 17 6 13 -9 -6 -23 12 -28 96 -25 67 2 81 10 81 53 0 18 -4 22
-17 17 -17 -6 -17 -5 -1 7 10 8 18 32 21 63 3 43 4 41 5 -18 2 -66 16 -94 33
-67 11 17 8 61 -5 71 -6 4 -6 12 0 20 19 24 16 86 -3 97 -10 6 -13 11 -6 11 6
0 9 9 6 21 -4 13 -11 18 -21 14 -8 -3 -20 2 -26 10 -11 16 -97 26 -143 18z"/>
<path d="M1337 4184 c-3 -3 -43 -6 -88 -5 -69 1 -80 -1 -75 -14 7 -18 -10 -20
-18 -2 -2 6 -3 -22 0 -63 3 -41 5 -103 4 -137 0 -35 4 -63 8 -63 5 0 8 -10 8
-22 -1 -22 2 -23 113 -25 77 -2 119 1 129 9 19 16 8 271 -14 306 -13 20 -53
30 -67 16z m-107 -104 c0 -11 -2 -20 -4 -20 -2 0 -6 9 -9 20 -3 11 -1 20 4 20
5 0 9 -9 9 -20z m30 -40 c0 -5 -5 -10 -11 -10 -5 0 -7 5 -4 10 3 6 8 10 11 10
2 0 4 -4 4 -10z m-32 -35 c-3 -3 -9 2 -12 12 -6 14 -5 15 5 6 7 -7 10 -15 7
-18z m36 -51 c3 -8 2 -12 -4 -9 -6 3 -10 10 -10 16 0 14 7 11 14 -7z"/>
<path d="M2055 3838 c-22 -6 -42 -12 -44 -14 -2 -2 -8 -27 -12 -55 -6 -40 -5
-56 8 -75 14 -22 14 -24 -2 -24 -14 0 -16 -10 -14 -69 2 -38 7 -67 11 -65 4 3
8 1 8 -5 0 -5 -5 -11 -11 -13 -6 -2 -12 -42 -14 -94 -2 -49 -9 -102 -16 -117
-19 -42 -2 -50 103 -53 51 -2 106 -7 121 -13 25 -10 29 -8 38 17 15 38 22 251
9 267 -6 7 -31 12 -60 11 -28 0 -50 2 -50 6 0 4 -8 5 -17 1 -10 -3 -15 -3 -11
2 4 4 32 8 62 9 30 1 58 5 62 9 13 13 16 131 4 187 -11 49 -16 57 -48 72 -53
24 -82 28 -127 16z m45 -63 c0 -8 -2 -15 -4 -15 -2 0 -6 7 -10 15 -3 8 -1 15
4 15 6 0 10 -7 10 -15z m-73 -187 c-3 -8 -6 -5 -6 6 -1 11 2 17 5 13 3 -3 4
-12 1 -19z m40 -58 c-28 -22 -37 -25 -37 -10 0 6 10 15 23 20 36 14 41 11 14
-10z m168 -90 c3 -5 1 -10 -4 -10 -6 0 -11 5 -11 10 0 6 2 10 4 10 3 0 8 -4
11 -10z m-28 -112 c-3 -7 -5 -2 -5 12 0 14 2 19 5 13 2 -7 2 -19 0 -25z m-197
-42 c0 -11 -19 -15 -25 -6 -3 5 1 10 9 10 9 0 16 -2 16 -4z"/>
<path d="M1597 3814 c-3 -3 -28 -6 -56 -6 -28 1 -51 -4 -51 -9 0 -6 -4 -8 -9
-4 -16 9 -33 -32 -22 -53 6 -11 6 -24 0 -34 -5 -10 -11 -42 -13 -73 -4 -67 4
-74 104 -91 l65 -11 -67 -2 c-37 0 -70 -6 -73 -12 -4 -6 -2 -29 4 -52 9 -38
22 -136 22 -179 0 -10 4 -18 9 -18 5 0 7 -7 4 -15 -12 -29 132 -71 198 -58 40
8 54 43 63 165 5 67 3 103 -5 118 -8 15 -8 20 -1 16 6 -4 11 -2 11 4 0 13 -44
30 -82 33 -26 2 -41 17 -17 17 6 0 9 7 5 15 -3 9 0 15 8 15 9 0 18 19 25 50
14 63 14 85 1 131 -8 30 -17 38 -49 47 -43 13 -65 15 -74 6z m43 -66 c0 -12
-1 -19 -3 -17 -1 2 -9 12 -16 22 -12 14 -11 17 3 17 10 0 16 -8 16 -22z m-80
3 c0 -6 -4 -13 -10 -16 -5 -3 -10 1 -10 9 0 9 5 16 10 16 6 0 10 -4 10 -9z
m24 -126 c-4 -8 -8 -15 -10 -15 -2 0 -4 7 -4 15 0 8 4 15 10 15 5 0 7 -7 4
-15z m56 -101 c0 -8 -4 -12 -10 -9 -5 3 -10 13 -10 21 0 8 5 12 10 9 6 -3 10
-13 10 -21z m-100 -34 c0 -5 -5 -10 -11 -10 -5 0 -7 5 -4 10 3 6 8 10 11 10 2
0 4 -4 4 -10z m165 -258 c-3 -3 -11 0 -18 7 -9 10 -8 11 6 5 10 -3 15 -9 12
-12z"/>
<path d="M1215 3791 c-4 -11 -8 -12 -17 -3 -16 16 -28 15 -28 -3 0 -8 -4 -15
-10 -15 -14 0 -13 -130 1 -185 13 -52 25 -64 65 -65 49 -1 165 34 181 55 13
18 14 94 1 193 -4 30 -182 51 -193 23z m76 -72 l-9 -34 -1 31 c-1 17 2 34 6
37 12 13 14 -1 4 -34z m-94 -81 c-2 -13 -4 -3 -4 22 0 25 2 35 4 23 2 -13 2
-33 0 -45z m163 -42 c0 -3 -4 -8 -10 -11 -5 -3 -10 -1 -10 4 0 6 5 11 10 11 6
0 10 -2 10 -4z"/>
<path d="M3828 3764 c-4 -3 -32 -7 -63 -9 -32 -2 -58 -5 -60 -7 -1 -2 -6 -40
-9 -85 l-7 -83 27 -10 26 -10 -24 -23 c-25 -23 -33 -56 -45 -178 l-5 -56 28
-1 c16 0 61 8 99 18 81 20 84 26 78 140 -3 51 -8 69 -25 83 -16 14 -17 17 -4
17 9 0 16 8 16 20 0 11 4 20 9 20 13 0 1 154 -12 162 -15 9 -22 10 -29 2z
m-81 -101 c-3 -10 -5 -2 -5 17 0 19 2 27 5 18 2 -10 2 -26 0 -35z m93 -60 c0
-7 -11 -13 -25 -13 -21 0 -23 2 -13 13 7 8 18 14 25 14 7 0 13 -6 13 -14z
m-60 -83 c0 -5 -4 -10 -10 -10 -5 0 -10 5 -10 10 0 6 5 10 10 10 6 0 10 -4 10
-10z m-50 -36 c0 -8 -19 -13 -24 -6 -3 5 1 9 9 9 8 0 15 -2 15 -3z m110 -108
c0 -2 -7 -7 -16 -10 -8 -3 -12 -2 -9 4 6 10 25 14 25 6z"/>
<path d="M3535 3604 c-6 -1 -31 -5 -57 -9 -73 -10 -82 -23 -73 -119 5 -55 13
-89 27 -108 19 -27 21 -28 86 -22 37 4 72 11 78 16 16 12 24 58 10 58 -6 0 -4
4 4 10 21 13 19 108 -3 141 -16 25 -48 39 -72 33z"/>
<path d="M1280 3479 c-19 -5 -42 -11 -50 -13 -8 -3 -18 -5 -22 -5 -4 -1 -7
-55 -6 -121 1 -92 5 -120 15 -120 7 0 13 -7 13 -15 0 -13 13 -15 78 -12 42 2
97 10 120 17 l44 14 -7 81 c-3 45 -12 104 -19 131 l-12 49 -60 2 c-32 0 -75
-3 -94 -8z m-27 -70 c-4 -15 -8 -17 -14 -8 -8 14 -3 29 11 29 4 0 6 -9 3 -21z
m3 -56 c-7 -7 -26 7 -26 19 0 6 6 6 15 -2 9 -7 13 -15 11 -17z"/>
<path d="M3377 3288 c-13 -17 -17 -39 -15 -98 1 -41 -2 -85 -6 -97 -12 -36 11
-66 45 -61 23 4 29 1 29 -14 0 -11 -7 -18 -20 -18 -11 0 -20 -6 -21 -12 0 -7
-3 -31 -5 -53 -14 -152 -9 -165 59 -159 l42 3 -30 -13 c-44 -19 -51 -32 -65
-128 -12 -77 -11 -90 3 -111 15 -23 16 -75 1 -98 -9 -16 -15 -109 -9 -146 6
-31 8 -32 51 -31 25 0 48 -2 51 -6 4 -3 -1 -6 -10 -6 -8 0 -19 -9 -22 -21 -6
-19 -7 -20 -20 -2 -14 19 -27 13 -32 -15 -11 -57 -14 -84 -18 -149 -4 -57 -2
-73 9 -73 8 0 26 -6 40 -14 21 -10 37 -11 69 -4 23 5 49 11 57 13 8 2 17 4 20
5 6 2 28 6 52 8 13 2 16 9 12 35 -3 17 -1 43 5 57 10 25 10 25 10 2 2 -50 18
-62 79 -62 62 0 106 17 108 40 0 8 6 29 13 45 7 17 11 42 8 58 -2 15 0 27 5
27 5 0 2 13 -7 30 -15 30 -16 30 -86 26 -39 -2 -75 -8 -79 -13 -4 -4 -14 -26
-21 -48 -12 -36 -14 -37 -17 -15 -2 14 -10 32 -18 41 -19 21 -89 23 -108 4
-12 -12 -16 -12 -26 0 -17 21 -6 32 40 39 47 7 83 53 77 98 -2 15 0 25 4 23 9
-6 19 20 19 46 0 11 -5 17 -10 14 -6 -4 -10 -3 -9 2 6 35 -50 70 -83 52 -11
-6 -19 -5 -24 2 -3 6 -17 9 -30 6 -13 -2 -24 0 -24 6 0 5 18 7 45 3 29 -5 45
-3 45 3 0 6 6 8 13 6 14 -5 37 12 54 42 10 18 11 50 1 171 -1 7 -7 11 -15 8
-7 -3 -12 0 -10 6 1 7 -2 13 -8 14 -5 1 -25 5 -44 9 -32 8 -33 9 -13 16 12 5
22 15 22 24 0 8 4 15 9 15 11 0 31 87 31 133 0 24 -7 37 -29 52 l-29 19 31 40
c30 38 32 44 32 130 0 66 -3 90 -12 89 -7 -2 -10 3 -7 11 4 10 -16 13 -93 15
-90 1 -99 -1 -116 -21z m48 -28 c-3 -5 -10 -10 -16 -10 -5 0 -9 5 -9 10 0 6 7
10 16 10 8 0 12 -4 9 -10z m-5 -70 c0 -5 -2 -10 -4 -10 -3 0 -8 5 -11 10 -3 6
-1 10 4 10 6 0 11 -4 11 -10z m170 -255 c0 -3 -7 -5 -15 -5 -8 0 -15 8 -15 18
0 10 -3 22 -7 28 -5 5 2 -1 15 -13 12 -12 22 -25 22 -28z m-121 3 c-1 -18 -5
-46 -9 -63 -6 -23 -7 -15 -7 33 0 34 4 62 9 62 4 0 7 -15 7 -32z m-49 -133 c0
-8 -4 -15 -10 -15 -5 0 -7 7 -4 15 4 8 8 15 10 15 2 0 4 -7 4 -15z m40 -76 c0
-15 -12 -39 -20 -39 -4 0 -7 10 -6 23 1 21 26 36 26 16z m130 -19 c0 -5 -2
-10 -4 -10 -3 0 -8 5 -11 10 -3 6 -1 10 4 10 6 0 11 -4 11 -10z m-130 -116 c0
-10 6 -14 14 -11 14 6 32 -21 21 -31 -3 -3 -5 -1 -5 4 0 5 -9 10 -19 10 -11 0
-17 -4 -14 -9 3 -5 -3 -7 -12 -5 -21 4 -29 39 -12 50 19 12 27 9 27 -8z m30
-170 c0 -8 -4 -12 -10 -9 -5 3 -10 13 -10 21 0 8 5 12 10 9 6 -3 10 -13 10
-21z m115 -12 c-8 -9 -25 20 -18 31 3 5 10 2 15 -7 6 -10 7 -20 3 -24z m-65
-21 c-6 -12 -8 -26 -5 -31 3 -5 0 -12 -6 -16 -9 -5 -10 1 -5 22 4 16 8 37 9
46 1 10 5 14 10 9 5 -5 4 -18 -3 -30z m-85 -91 c3 -5 1 -10 -4 -10 -6 0 -11 5
-11 10 0 6 2 10 4 10 3 0 8 -4 11 -10z m40 0 c3 -5 -1 -10 -10 -10 -9 0 -13 5
-10 10 3 6 8 10 10 10 2 0 7 -4 10 -10z m236 -93 c-10 -9 -11 -8 -5 6 3 10 9
15 12 12 3 -3 0 -11 -7 -18z m-113 -35 c4 -24 -20 -30 -47 -13 -12 8 -13 12
-1 26 18 22 44 15 48 -13z m-81 -14 c-3 -8 -6 -5 -6 6 -1 11 2 17 5 13 3 -3 4
-12 1 -19z m169 -95 c-10 -10 -19 5 -10 18 6 11 8 11 12 0 2 -7 1 -15 -2 -18z
m-139 -33 c-1 -11 -8 -20 -15 -20 -11 0 -12 3 -3 13 6 8 8 17 4 20 -3 4 -1 7
5 7 6 0 10 -9 9 -20z m-67 -35 c0 -11 -31 -11 -39 -1 -9 10 -6 12 14 8 14 -2
25 -6 25 -7z"/>
<path d="M3690 3288 c0 -4 -8 -8 -19 -8 -21 0 -47 -51 -37 -75 3 -8 1 -15 -4
-15 -18 0 -12 -107 8 -126 16 -16 17 -16 20 -1 2 9 8 17 13 17 6 0 7 -4 4 -10
-11 -18 42 -10 115 17 8 4 22 5 31 4 9 -1 22 5 29 14 10 13 9 15 -6 16 -11 1
-27 1 -36 0 -10 -1 -18 2 -18 8 0 17 17 21 45 11 25 -9 27 -9 22 10 -3 11 -2
18 3 15 4 -3 10 5 14 18 9 34 7 75 -4 82 -21 13 -180 33 -180 23z m-10 -194
c0 -2 -7 -4 -15 -4 -8 0 -15 4 -15 10 0 5 7 7 15 4 8 -4 15 -8 15 -10z"/>
<path d="M3230 3282 c-42 -2 -59 -8 -73 -25 -11 -14 -15 -16 -11 -5 5 15 -3
17 -68 17 -40 0 -103 2 -139 3 -55 1 -70 -2 -89 -19 -12 -12 -27 -20 -34 -19
-6 2 -8 1 -5 -1 4 -2 3 -20 -2 -40 -4 -20 -6 -41 -3 -45 10 -16 35 -8 45 15
10 22 10 22 5 0 -2 -12 1 -24 6 -25 6 -2 8 -13 5 -23 -5 -19 -5 -19 -12 2 -6
19 -9 20 -21 8 -8 -7 -14 -23 -14 -34 0 -18 5 -20 28 -16 26 5 26 5 5 -6 -13
-7 -23 -16 -23 -21 0 -5 4 -6 10 -3 6 4 8 -7 5 -27 -13 -83 -17 -251 -6 -244
7 5 8 1 4 -10 -5 -14 -2 -16 18 -10 13 4 55 15 93 25 84 22 97 38 92 105 -8
91 -13 99 -81 123 -26 8 -45 17 -43 18 2 2 20 6 40 9 55 9 78 33 78 81 1 40 1
40 15 15 8 -14 14 -35 15 -47 0 -39 11 -53 40 -53 37 0 47 -16 20 -32 -11 -7
-20 -18 -20 -25 0 -7 -4 -13 -9 -13 -4 0 -14 -20 -21 -45 -11 -39 -10 -48 4
-69 9 -14 16 -33 16 -42 0 -9 9 -18 20 -21 20 -5 29 -33 11 -33 -5 0 -8 -11
-7 -25 2 -13 -1 -22 -6 -19 -5 3 -8 -18 -7 -48 1 -29 -1 -64 -6 -77 -4 -13 -3
-21 2 -18 5 3 7 -10 5 -29 -4 -36 -2 -38 48 -35 14 1 59 1 102 1 76 -1 76 -1
81 27 3 15 6 35 6 43 0 8 3 43 5 77 3 46 1 67 -10 77 -8 8 -14 19 -14 24 0 19
-47 29 -115 25 -66 -4 -69 -3 -47 12 12 9 26 14 31 10 5 -3 12 -1 16 4 3 5 15
8 27 6 28 -6 76 24 58 35 -9 5 -8 9 3 13 21 8 19 67 -3 95 -19 24 -18 48 1 37
17 -11 9 22 -12 49 -17 21 -18 26 -5 26 27 0 38 39 34 121 -4 95 -12 105 -88
101z m-160 -84 c0 -19 -2 -20 -10 -8 -13 19 -13 30 0 30 6 0 10 -10 10 -22z
m130 18 c0 -2 -7 -9 -15 -16 -12 -10 -15 -10 -15 4 0 9 7 16 15 16 8 0 15 -2
15 -4z m-20 -66 c0 -5 -8 -10 -17 -10 -15 0 -16 2 -3 10 19 12 20 12 20 0z m3
-35 c-3 -9 -8 -14 -10 -11 -3 3 -2 9 2 15 9 16 15 13 8 -4z m87 -35 c0 -5 -9
-8 -19 -7 -15 1 -17 4 -9 14 11 13 28 9 28 -7z m-277 -120 c-3 -12 -8 -19 -11
-16 -5 6 5 36 12 36 2 0 2 -9 -1 -20z m234 -5 c0 -8 -4 -12 -9 -9 -4 3 -8 9
-8 15 0 5 4 9 8 9 5 0 9 -7 9 -15z m-69 -133 c2 -7 -2 -10 -12 -6 -9 3 -16 11
-16 16 0 13 23 5 28 -10z m62 14 c0 -3 -4 -8 -10 -11 -5 -3 -10 -1 -10 4 0 6
5 11 10 11 6 0 10 -2 10 -4z m48 -137 c-3 -33 -4 -33 -8 8 -3 23 -2 39 3 34 5
-5 7 -24 5 -42z m-48 32 c0 -6 -4 -12 -8 -15 -5 -3 -9 1 -9 9 0 8 4 15 9 15 4
0 8 -4 8 -9z m100 -16 c0 -8 -2 -15 -4 -15 -2 0 -6 7 -10 15 -3 8 -1 15 4 15
6 0 10 -7 10 -15z m-138 -55 c-2 -22 -6 -40 -8 -40 -2 0 -4 18 -4 40 0 22 3
40 8 40 4 0 6 -18 4 -40z"/>
<path d="M2015 3215 c-15 -11 -29 -174 -18 -191 5 -6 17 -16 28 -22 17 -10 17
-11 3 -12 -28 0 -47 -37 -38 -75 4 -18 6 -47 4 -65 -3 -21 1 -33 12 -37 13 -5
13 -7 -1 -23 -14 -15 -13 -18 5 -35 23 -21 200 -35 200 -16 0 6 6 11 14 11 8
0 17 7 20 16 9 22 8 24 -11 24 -16 0 -16 1 0 13 15 10 17 24 11 101 -6 75 -10
89 -26 94 -14 3 -16 8 -7 18 6 7 17 10 25 7 10 -4 14 4 15 33 1 38 1 133 0
145 -2 22 -212 34 -236 14z m65 -40 c0 -8 -2 -15 -4 -15 -2 0 -6 7 -10 15 -3
8 -1 15 4 15 6 0 10 -7 10 -15z m135 5 c3 -6 -1 -7 -9 -4 -18 7 -21 14 -7 14
6 0 13 -4 16 -10z m-173 -62 c-8 -8 -9 -4 -5 13 4 13 8 18 11 10 2 -7 -1 -18
-6 -23z m49 -1 c-10 -9 -11 -8 -5 6 3 10 9 15 12 12 3 -3 0 -11 -7 -18z m-34
-84 c-3 -3 -11 -2 -17 2 -9 6 -9 10 1 16 14 8 27 -7 16 -18z m-17 -93 c0 -5
-4 -10 -10 -10 -5 0 -10 5 -10 10 0 6 5 10 10 10 6 0 10 -4 10 -10z m67 -32
c-3 -8 -6 -5 -6 6 -1 11 2 17 5 13 3 -3 4 -12 1 -19z m-70 -54 c-3 -3 -12 -4
-19 -1 -8 3 -5 6 6 6 11 1 17 -2 13 -5z m0 -66 c-3 -7 -5 -2 -5 12 0 14 2 19
5 13 2 -7 2 -19 0 -25z m115 -20 c-6 -6 -15 -8 -19 -4 -4 4 -1 11 7 16 19 12
27 3 12 -12z"/>
<path d="M1532 3152 c-36 -3 -43 -6 -37 -20 14 -35 18 -59 30 -161 10 -94 25
-111 98 -111 30 0 57 3 60 6 4 4 24 8 46 8 22 1 43 5 48 9 4 4 8 59 10 121 2
87 -1 117 -11 125 -18 15 -78 33 -71 21 3 -5 1 -11 -4 -14 -5 -3 -11 0 -14 7
-5 13 -69 17 -155 9z m125 -238 c-3 -3 -12 -4 -19 -1 -8 3 -5 6 6 6 11 1 17
-2 13 -5z"/>
<path d="M1317 3144 c-3 -3 -27 -5 -55 -6 l-51 0 4 -71 c2 -39 8 -73 14 -75 7
-2 6 -10 -2 -23 -10 -16 -9 -21 3 -29 10 -6 11 -10 3 -10 -17 0 -16 -32 1 -55
13 -18 20 -18 120 -8 124 13 142 24 131 81 -4 20 -9 60 -11 87 -4 65 -8 83
-21 96 -11 11 -127 22 -136 13z m-37 -83 c0 -6 -4 -12 -8 -15 -5 -3 -9 1 -9 9
0 8 4 15 9 15 4 0 8 -4 8 -9z"/>
<path d="M3765 3058 c-136 -22 -132 -17 -131 -166 l1 -117 104 3 c57 1 110 7
117 13 9 7 10 19 3 42 -10 34 -2 125 12 143 10 13 1 72 -12 80 -16 10 -44 10
-94 2z m65 -31 c0 -2 -9 -12 -20 -22 -19 -18 -20 -17 -20 3 0 15 6 22 20 22
11 0 20 -2 20 -3z m-127 -39 c13 -14 14 -18 3 -18 -12 0 -46 25 -46 34 0 10
28 -1 43 -16z m77 -106 c0 -5 -7 -17 -15 -28 -14 -18 -14 -17 -4 9 12 27 19
34 19 19z m60 -46 c0 -7 -12 -16 -27 -19 l-27 -5 25 19 c29 22 29 22 29 5z
m-150 -22 c0 -2 -7 -4 -15 -4 -8 0 -15 4 -15 10 0 5 7 7 15 4 8 -4 15 -8 15
-10z m65 6 c-3 -5 -16 -10 -28 -9 -21 0 -21 1 -2 9 28 12 37 12 30 0z"/>
<path d="M1318 2826 c-32 -9 -51 -9 -57 -3 -6 6 -14 7 -18 3 -4 -4 0 -12 9
-17 10 -5 15 -16 11 -25 -5 -12 -7 -12 -20 3 -13 16 -14 10 -8 -52 3 -38 7
-77 7 -85 1 -8 -2 -33 -5 -55 -6 -31 -3 -45 12 -65 15 -19 22 -22 33 -12 14
11 26 11 141 -4 56 -8 92 15 83 52 -3 11 -10 72 -16 134 -5 63 -13 117 -17
121 -16 14 -110 17 -155 5z"/>
<path d="M1531 2739 c1 -51 5 -71 16 -78 11 -6 12 -10 4 -15 -18 -12 -10 -74
15 -114 1 -2 16 -6 32 -8 23 -4 31 -1 35 13 4 16 5 16 6 1 1 -10 9 -16 21 -15
11 1 20 4 20 7 0 3 18 5 39 5 51 1 81 27 81 72 0 18 -4 33 -8 33 -5 0 -9 7 -9
15 0 10 6 14 15 10 11 -4 13 4 8 47 -8 77 -7 76 -32 82 -12 3 -30 9 -40 13
-13 5 -16 3 -11 -10 7 -19 -13 -23 -30 -6 -6 6 -45 12 -87 14 l-75 3 0 -69z
m94 -49 c3 -5 1 -10 -4 -10 -6 0 -11 5 -11 10 0 6 2 10 4 10 3 0 8 -4 11 -10z
m-8 -136 c-9 -9 -28 6 -21 18 4 6 10 6 17 -1 6 -6 8 -13 4 -17z m88 16 c3 -5
1 -10 -4 -10 -6 0 -11 5 -11 10 0 6 2 10 4 10 3 0 8 -4 11 -10z"/>
<path d="M3723 2745 c-21 -9 -33 -22 -34 -35 -2 -24 -3 -29 -14 -55 -5 -11 -9
-49 -10 -85 l0 -65 85 3 c62 3 88 8 97 19 7 9 10 20 7 24 -3 5 0 9 5 9 6 0 10
10 10 23 -1 12 3 35 10 50 14 35 14 77 1 77 -5 0 -7 6 -4 13 3 9 -9 18 -34 25
-51 15 -79 15 -119 -3z m-13 -156 c-13 -8 -13 -11 3 -23 22 -17 22 -26 -2 -26
-14 0 -19 7 -19 28 0 15 5 30 11 34 17 11 23 -2 7 -13z"/>
<path d="M2112 2704 c-90 -16 -108 -22 -127 -41 -12 -12 -13 -18 -4 -30 7 -8
12 -37 11 -66 -2 -70 14 -127 36 -128 9 -1 32 0 51 1 18 1 31 -2 28 -7 -4 -6
-25 -10 -49 -11 -30 -1 -48 -8 -60 -23 -22 -27 -23 -49 -2 -49 12 0 14 -5 9
-17 -5 -10 -9 -46 -11 -80 -2 -67 10 -90 46 -80 34 9 31 -9 -5 -26 -30 -14
-36 -28 -24 -57 1 -3 2 -48 3 -99 1 -92 2 -95 26 -102 l25 -7 -27 -1 c-16 -1
-32 -9 -38 -20 -9 -18 -7 -19 20 -16 18 2 28 0 25 -5 -14 -22 -16 -104 -5
-144 8 -31 20 -47 38 -56 l27 -12 -24 -9 c-18 -7 -22 -15 -19 -34 3 -13 1 -26
-4 -27 -5 -2 -11 -38 -14 -79 -6 -89 8 -116 55 -104 24 7 38 9 106 13 28 2 51
41 31 54 -8 5 -7 8 2 8 21 0 13 156 -9 182 -10 11 -22 17 -28 14 -5 -4 -12 -2
-15 3 -5 7 14 16 54 26 3 0 16 7 29 14 23 13 23 15 17 119 -3 59 -5 108 -6
110 0 1 -10 -2 -22 -9 -11 -6 -60 -13 -107 -15 -65 -3 -79 -2 -56 6 16 5 48
10 70 11 22 2 53 11 68 22 27 18 28 22 23 81 -8 105 -15 124 -49 135 -16 6
-41 11 -55 11 -20 0 -22 3 -12 14 6 8 18 12 26 9 9 -3 33 0 54 7 34 11 39 16
42 51 2 21 0 48 -4 59 -4 11 -3 20 2 20 14 0 -1 114 -16 126 -16 13 -19 54 -4
54 6 0 10 11 10 25 0 14 -5 25 -11 25 -6 0 -3 7 5 16 22 21 20 54 -1 55 -16 0
-16 1 0 8 17 6 17 8 4 20 -9 7 -13 19 -10 27 3 8 -1 14 -8 14 -7 0 -20 6 -28
13 -13 11 -29 11 -89 1z m-85 -176 c-3 -8 -6 -5 -6 6 -1 11 2 17 5 13 3 -3 4
-12 1 -19z m171 -41 c21 -3 19 -4 -10 -6 -41 -1 -41 -1 -31 26 7 16 8 16 11 1
2 -9 15 -19 30 -21z m-129 -139 c-1 -42 -1 -42 -10 -13 -5 17 -7 36 -4 43 9
24 15 11 14 -30z m51 -36 c0 -15 2 -15 10 -2 5 8 10 10 10 4 0 -6 -8 -18 -18
-27 -25 -23 -44 -5 -28 28 12 25 26 24 26 -3z m-80 -83 c0 -11 -4 -18 -10 -14
-5 3 -7 12 -3 20 7 21 13 19 13 -6z m180 4 c-1 -18 -18 -35 -24 -24 -4 6 -4
16 -1 21 7 12 25 13 25 3z m-70 -115 c0 -11 -28 -10 -35 1 -3 6 4 9 15 8 11
-1 20 -5 20 -9z m18 -55 c10 -10 6 -12 -21 -11 -28 1 -33 5 -30 19 5 19 27 16
51 -8z m-93 -125 c6 -4 2 -8 -7 -8 -10 0 -18 7 -18 17 0 9 3 12 8 7 4 -5 12
-12 17 -16z m178 -98 c-3 -12 -8 -19 -11 -16 -5 6 5 36 12 36 2 0 2 -9 -1 -20z
m-106 -22 c-3 -7 -5 -2 -5 12 0 14 2 19 5 13 2 -7 2 -19 0 -25z m-47 12 c0 -5
-2 -10 -4 -10 -3 0 -8 5 -11 10 -3 6 -1 10 4 10 6 0 11 -4 11 -10z m50 -69 c0
-6 -4 -13 -10 -16 -5 -3 -10 1 -10 9 0 9 5 16 10 16 6 0 10 -4 10 -9z m35 -61
c-3 -5 -12 -10 -18 -10 -7 0 -6 4 3 10 19 12 23 12 15 0z m-58 -282 c-3 -8 -6
-5 -6 6 -1 11 2 17 5 13 3 -3 4 -12 1 -19z"/>
<path d="M2888 2712 c-10 -2 -21 -15 -25 -30 -8 -35 -10 -209 -1 -217 3 -4 25
-9 47 -12 49 -7 46 -19 -3 -15 -28 3 -35 -1 -44 -25 -15 -35 -25 -147 -17
-173 3 -10 15 -22 25 -25 16 -5 17 -9 7 -20 -6 -7 -15 -11 -19 -9 -15 9 -17
-18 -8 -93 14 -97 31 -116 102 -111 26 2 48 -1 48 -6 0 -5 8 -2 17 5 11 10 14
10 9 2 -4 -8 -2 -13 7 -13 8 0 18 7 21 16 3 9 11 12 18 8 7 -4 10 -4 6 1 -4 4
-3 16 2 26 7 12 7 20 0 24 -5 3 -10 26 -10 50 0 24 -3 51 -6 60 -8 20 -66 47
-119 56 -40 6 -40 6 12 7 56 2 82 19 85 55 0 12 2 36 4 52 7 68 -5 95 -49 115
l-42 19 40 -3 c71 -7 74 0 70 120 -4 131 -10 139 -98 140 -34 0 -70 -1 -79 -4z
m87 -41 c3 -5 1 -12 -5 -16 -5 -3 -10 1 -10 9 0 18 6 21 15 7z m-78 -143 c-3
-7 -5 -2 -5 12 0 14 2 19 5 13 2 -7 2 -19 0 -25z m87 -20 c-3 -4 -14 -8 -25
-8 -11 0 -18 4 -15 8 2 4 14 8 25 8 11 0 17 -4 15 -8z m-89 -248 c3 -5 1 -10
-4 -10 -6 0 -11 5 -11 10 0 6 2 10 4 10 3 0 8 -4 11 -10z m70 -108 c-3 -3 -11
0 -18 7 -9 10 -8 11 6 5 10 -3 15 -9 12 -12z m-15 -122 c0 -5 -9 -10 -20 -10
-11 0 -20 5 -20 10 0 6 9 10 20 10 11 0 20 -4 20 -10z"/>
<path d="M1647 2504 c-1 -2 -28 -6 -58 -10 -58 -6 -97 -32 -83 -55 5 -8 7 -26
5 -41 -1 -16 2 -28 8 -28 6 0 9 -19 7 -47 -2 -27 0 -58 5 -70 11 -30 70 -41
104 -19 16 11 46 16 90 16 45 0 65 4 66 13 0 6 2 23 5 36 2 13 0 40 -6 60 -5
20 -12 57 -15 81 -3 25 -9 48 -13 52 -7 7 -109 18 -115 12z m-50 -76 c-3 -7
-5 -2 -5 12 0 14 2 19 5 13 2 -7 2 -19 0 -25z"/>
<path d="M3162 2472 c-37 -31 -56 -83 -39 -102 9 -10 9 -11 0 -6 -13 7 -28
-28 -18 -43 3 -5 1 -12 -5 -16 -15 -9 -12 -51 5 -65 15 -12 87 -16 104 -6 5 3
26 8 47 11 55 7 71 31 73 111 2 79 -18 109 -78 120 -20 4 -41 10 -47 15 -6 5
-23 -2 -42 -19z m3 -182 c-3 -5 -11 -10 -16 -10 -6 0 -7 5 -4 10 3 6 11 10 16
10 6 0 7 -4 4 -10z m65 -4 c0 -3 -4 -8 -10 -11 -5 -3 -10 -1 -10 4 0 6 5 11
10 11 6 0 10 -2 10 -4z"/>
<path d="M1305 2482 c-2 -2 -24 -4 -50 -5 l-48 -2 2 -102 c2 -112 18 -191 41
-205 10 -6 26 -5 45 3 32 14 39 15 100 18 24 1 51 10 67 24 l27 22 -14 105
c-14 114 -21 140 -39 140 -98 4 -128 5 -131 2z m49 -147 c-4 -8 -10 -12 -15
-9 -14 8 -10 24 6 24 9 0 12 -6 9 -15z m66 -99 c0 -3 -4 -8 -10 -11 -5 -3 -10
-1 -10 4 0 6 5 11 10 11 6 0 10 -2 10 -4z"/>
<path d="M3657 2484 c-8 -8 2 -54 15 -71 5 -6 5 -12 -1 -15 -5 -1 -10 -25 -11
-53 -4 -71 -2 -78 15 -71 8 3 15 1 15 -5 0 -6 18 -8 48 -5 26 2 59 5 73 5 22
1 28 8 39 46 7 24 10 54 7 65 -3 11 -1 20 4 20 5 0 7 10 5 23 -3 12 -5 25 -5
29 -3 23 -184 51 -204 32z m117 -95 c-5 -39 -9 -48 -14 -34 -4 11 -4 28 1 37
5 9 9 27 9 39 0 12 2 20 5 17 4 -3 3 -30 -1 -59z m-40 -59 c7 0 13 -6 13 -14
0 -9 -10 -13 -29 -12 -33 2 -58 29 -33 34 8 2 15 9 15 15 0 7 5 4 11 -5 5 -10
16 -18 23 -18z"/>
<path d="M1695 2198 c-22 -4 -56 -10 -75 -14 -19 -4 -43 -7 -52 -6 -35 2 -43
-26 -42 -146 1 -142 -1 -140 130 -140 135 1 136 1 137 155 1 153 -9 168 -98
151z m29 -59 c-3 -5 -10 -7 -15 -3 -5 3 -7 10 -3 15 3 5 10 7 15 3 5 -3 7 -10
3 -15z"/>
<path d="M3253 2203 c-13 -2 -23 -9 -23 -15 0 -6 -8 -8 -19 -5 -25 6 -51 -10
-51 -33 0 -11 -4 -20 -8 -20 -5 0 -6 14 -4 31 4 26 1 30 -13 27 -21 -4 -27
-29 -27 -113 -1 -93 2 -104 37 -111 16 -3 34 -9 40 -12 17 -10 99 -1 122 14
12 8 33 15 45 15 17 1 18 3 6 6 -15 4 -17 17 -16 99 1 121 -8 133 -89 117z
m-33 -83 c0 -31 -4 -40 -17 -40 -14 0 -15 2 -4 9 9 6 12 20 9 40 -2 17 -1 31
4 31 4 0 8 -18 8 -40z m-16 -65 c-4 -8 -7 -15 -9 -15 -2 0 -5 7 -9 15 -3 9 0
15 9 15 9 0 12 -6 9 -15z m-44 -26 c0 -5 4 -8 9 -4 6 3 9 -4 8 -15 -1 -21 -6
-24 -23 -12 -13 8 -15 42 -2 42 4 0 8 -5 8 -11z m80 -19 c0 -5 -4 -10 -10 -10
-5 0 -10 5 -10 10 0 6 5 10 10 10 6 0 10 -4 10 -10z m47 -6 c-3 -3 -12 -4 -19
-1 -8 3 -5 6 6 6 11 1 17 -2 13 -5z"/>
<path d="M1320 2140 c0 -5 -6 -7 -14 -4 -8 3 -23 1 -32 -4 -22 -12 -31 -136
-12 -160 10 -13 10 -14 1 -8 -8 4 -13 1 -13 -8 0 -9 4 -16 10 -16 5 0 9 -10 7
-22 -2 -18 6 -25 37 -36 41 -13 163 -19 174 -7 4 3 6 32 5 63 -2 31 -4 87 -5
124 -2 65 -3 68 -32 78 -37 13 -126 13 -126 0z"/>
<path d="M3650 2021 c0 -6 5 -13 10 -16 6 -3 10 1 10 9 0 9 -4 16 -10 16 -5 0
-10 -4 -10 -9z"/>
<path d="M3750 1982 c0 -5 -13 -7 -30 -4 -17 2 -30 0 -30 -6 0 -6 -9 -8 -20
-5 -17 5 -20 1 -19 -23 0 -16 -2 -39 -6 -51 -6 -18 -3 -23 9 -23 10 0 14 -5
11 -10 -4 -6 -10 -8 -15 -5 -10 6 -16 -20 -16 -65 l1 -35 52 -1 c66 -1 141 10
154 23 14 14 18 119 7 158 -4 17 -16 36 -25 43 -19 13 -73 17 -73 4z m0 -87
c0 -8 -4 -15 -10 -15 -5 0 -7 7 -4 15 4 8 8 15 10 15 2 0 4 -7 4 -15z"/>
<path d="M1260 1831 l-35 -6 -3 -97 c-2 -66 -7 -100 -16 -107 -27 -23 -7 -48
47 -59 100 -21 183 -6 206 36 11 20 16 94 13 179 -2 30 -7 43 -19 47 -28 9
-155 13 -193 7z m53 -81 c-7 -27 -21 -25 -18 3 3 29 3 29 14 23 5 -3 7 -15 4
-26z m17 -40 c0 -5 -2 -10 -4 -10 -3 0 -8 5 -11 10 -3 6 -1 10 4 10 6 0 11 -4
11 -10z"/>
<path d="M1615 1832 c-94 -3 -94 -3 -85 -51 4 -23 4 -41 0 -41 -4 0 -7 -26 -5
-57 4 -84 4 -83 21 -83 10 0 14 -6 10 -15 -4 -12 4 -15 37 -16 77 -2 131 3
148 12 24 13 56 161 43 202 -11 36 -70 53 -169 49z m66 -51 c-7 -5 -10 -14 -7
-20 4 -6 2 -11 -3 -11 -6 0 -11 9 -11 20 0 12 7 20 18 20 13 0 14 -2 3 -9z"/>
<path d="M3666 1700 c-15 -5 -36 -16 -46 -25 -14 -13 -19 -13 -23 -3 -8 18 1
-65 15 -137 8 -47 15 -61 29 -61 9 0 15 4 13 8 -3 4 2 8 10 8 25 0 28 -18 4
-26 -13 -5 -27 -8 -32 -9 -17 0 -18 -25 -2 -31 17 -7 106 16 106 27 0 4 15 7
33 8 35 1 53 4 80 16 16 7 17 18 13 95 -5 95 -20 134 -49 126 -9 -2 -15 0 -11
5 7 11 -101 10 -140 -1z m54 -47 c0 -16 -2 -16 -10 -3 -9 13 -12 12 -25 -4
-15 -19 -15 -19 -15 2 0 17 6 22 25 22 17 0 25 -5 25 -17z m-79 -20 c13 -16
12 -17 -3 -4 -17 13 -22 21 -14 21 2 0 10 -8 17 -17z m169 -103 c0 -5 -4 -10
-10 -10 -5 0 -10 5 -10 10 0 6 5 10 10 10 6 0 10 -4 10 -10z"/>
<path d="M2335 1652 c-11 -2 -24 -8 -29 -13 -5 -5 -11 -62 -12 -126 -1 -65 -3
-118 -4 -118 -1 0 -3 -8 -5 -17 -7 -37 85 -71 105 -38 4 6 26 13 50 16 29 3
52 14 67 30 25 27 31 69 11 77 -8 3 -6 6 5 6 14 1 17 11 17 56 0 40 -4 57 -15
61 -27 11 -16 24 21 24 l36 0 -6 -99 c-4 -76 -2 -108 9 -135 15 -35 16 -36 58
-30 23 4 43 10 45 14 2 4 22 5 46 3 40 -5 43 -3 55 25 7 16 11 36 10 43 -1 8
1 21 4 29 4 8 8 44 9 80 3 60 1 66 -21 78 -13 6 -31 12 -41 12 -10 0 -32 6
-50 14 -24 10 -43 11 -69 4 -93 -24 -111 -26 -123 -11 -8 10 -23 13 -43 10
-17 -3 -49 -2 -70 2 -22 4 -49 5 -60 3z m129 -90 c3 -5 -1 -9 -9 -9 -8 0 -12
4 -9 9 3 4 7 8 9 8 2 0 6 -4 9 -8z m188 -37 c-4 -41 -6 -44 -17 -28 -8 10 -9
20 -4 21 5 2 9 15 9 28 0 13 3 24 8 24 4 0 6 -20 4 -45z m-4 -128 c24 5 25 4
14 -9 -16 -20 -52 -12 -51 11 0 10 2 11 6 4 3 -9 14 -11 31 -6z m-283 -17 c-3
-5 -10 -10 -16 -10 -5 0 -9 5 -9 10 0 6 7 10 16 10 8 0 12 -4 9 -10z"/>
<path d="M2875 1633 c-11 -3 -24 -9 -30 -14 -11 -11 -15 -242 -4 -260 15 -26
163 -3 207 32 25 19 26 26 28 119 2 110 -3 121 -57 119 -19 0 -54 1 -79 4 -25
3 -54 3 -65 0z m95 -37 c0 -2 -7 -6 -15 -10 -8 -3 -15 -1 -15 4 0 6 7 10 15
10 8 0 15 -2 15 -4z m34 -17 c-6 -11 -24 -2 -24 11 0 5 7 7 15 4 8 -4 12 -10
9 -15z m-4 -39 c6 -11 7 -20 2 -20 -6 0 -12 9 -15 20 -3 11 -3 20 -1 20 2 0 8
-9 14 -20z m-9 -53 c-10 -9 -11 -8 -5 6 3 10 9 15 12 12 3 -3 0 -11 -7 -18z"/>
<path d="M3219 1627 c-24 -4 -56 -6 -70 -3 -41 8 -58 -32 -58 -139 0 -50 3
-96 8 -104 7 -10 23 -12 62 -7 30 3 62 6 72 6 9 0 17 8 17 18 0 12 3 13 8 5 6
-9 15 -6 37 11 28 22 28 26 29 114 1 59 5 92 12 92 6 0 10 -14 9 -32 -1 -18 2
-36 7 -39 7 -4 7 -13 0 -25 -13 -25 2 -144 20 -155 13 -9 42 -7 68 5 8 3 37 7
63 9 49 3 77 23 54 40 -9 7 -9 10 1 14 8 3 12 28 12 77 0 42 -5 79 -12 89 -26
34 -211 47 -339 24z m1 -58 c0 -6 -4 -7 -10 -4 -5 3 -10 11 -10 16 0 6 5 7 10
4 6 -3 10 -11 10 -16z m50 -109 c0 -5 -2 -10 -4 -10 -3 0 -8 5 -11 10 -3 6 -1
10 4 10 6 0 11 -4 11 -10z m-130 -55 c0 -5 -5 -3 -10 5 -5 8 -10 20 -10 25 0
6 5 3 10 -5 5 -8 10 -19 10 -25z m100 31 c0 -11 -19 -15 -25 -6 -3 5 1 10 9
10 9 0 16 -2 16 -4z m-35 -28 c6 -4 0 -8 -12 -8 -16 0 -21 4 -16 15 3 9 8 12
12 8 3 -4 11 -11 16 -15z m332 16 c-3 -3 -12 -4 -19 -1 -8 3 -5 6 6 6 11 1 17
-2 13 -5z"/>
</g>
</svg>
